STARTFONT 2.1
FONT -Monotype-Book Antiqua-Bold-R-Normal--17-120-100-100-P-85-iso8859-4
SIZE 12 100 100
FONTBOUNDINGBOX 20 21 -2 -5

STARTPROPERTIES 24
FOUNDRY "Monotype"
FAMILY_NAME "Book Antiqua"
WEIGHT_NAME "Bold"
SLANT "R"
SETWIDTH_NAME "Normal"
ADD_STYLE_NAME ""
PIXEL_SIZE 17
POINT_SIZE 120
RESOLUTION_X 100
RESOLUTION_Y 100
SPACING "P"
AVERAGE_WIDTH 85
CHARSET_REGISTRY "iso8859"
CHARSET_ENCODING "4"
FACE_NAME "Book Antiqua Bold ISO Latin4"
_DEC_DEVICE_FONTNAMES "PS=bookantiqua-b-lat4"
COPYRIGHT "Copyright (c) 1994 Monotype Typography Ltd."
CAP_HEIGHT 15
X_HEIGHT 10
WEIGHT 10
QUAD_WIDTH 10
DEFAULT_CHAR 160
FONT_DESCENT 5
FONT_ASCENT 17
ENDPROPERTIES

CHARS 191

STARTCHAR space
ENCODING 32
SWIDTH 250 0
DWIDTH 4 0
BBX 0 0 0 0
BITMAP
ENDCHAR

STARTCHAR exclam
ENCODING 33
SWIDTH 278 0
DWIDTH 5 0
BBX 2 13 2 0
BITMAP
C0
C0
C0
C0
C0
C0
C0
C0
80
00
00
C0
C0
ENDCHAR

STARTCHAR quotedbl
ENCODING 34
SWIDTH 402 0
DWIDTH 7 0
BBX 5 5 1 7
BITMAP
D8
D8
D8
48
48
ENDCHAR

STARTCHAR numbersign
ENCODING 35
SWIDTH 606 0
DWIDTH 10 0
BBX 10 12 0 0
BITMAP
1980
1980
1980
7FC0
3300
3300
3300
3300
FF80
6600
6600
6600
ENDCHAR

STARTCHAR dollar
ENCODING 36
SWIDTH 500 0
DWIDTH 9 0
BBX 8 14 1 -1
BITMAP
08
3F
69
C9
C8
C8
FC
7E
0F
0B
8B
8E
FC
08
ENDCHAR

STARTCHAR percent
ENCODING 37
SWIDTH 889 0
DWIDTH 15 0
BBX 14 12 1 0
BITMAP
7040
D840
8880
8880
8900
D938
726C
0244
0444
0444
086C
0838
ENDCHAR

STARTCHAR ampersand
ENCODING 38
SWIDTH 833 0
DWIDTH 14 0
BBX 13 12 1 0
BITMAP
0C00
1600
3200
3600
3C00
31F8
5840
CC40
C6C0
E388
73D8
3E70
ENDCHAR

STARTCHAR quoteright
ENCODING 39
SWIDTH 278 0
DWIDTH 5 0
BBX 3 4 1 9
BITMAP
60
60
40
80
ENDCHAR

STARTCHAR parenleft
ENCODING 40
SWIDTH 333 0
DWIDTH 6 0
BBX 4 18 1 -5
BITMAP
10
20
60
40
C0
C0
C0
C0
C0
C0
C0
C0
C0
C0
40
60
20
10
ENDCHAR

STARTCHAR parenright
ENCODING 41
SWIDTH 333 0
DWIDTH 6 0
BBX 4 18 1 -5
BITMAP
80
40
60
20
30
30
30
30
30
30
30
30
30
30
20
60
40
80
ENDCHAR

STARTCHAR asterisk
ENCODING 42
SWIDTH 444 0
DWIDTH 8 0
BBX 7 7 1 6
BITMAP
10
92
D6
38
FE
92
10
ENDCHAR

STARTCHAR plus
ENCODING 43
SWIDTH 606 0
DWIDTH 10 0
BBX 8 8 1 1
BITMAP
18
18
18
FF
FF
18
18
18
ENDCHAR

STARTCHAR comma
ENCODING 44
SWIDTH 250 0
DWIDTH 6 0
BBX 3 4 1 -2
BITMAP
60
60
40
80
ENDCHAR

STARTCHAR minus
ENCODING 45
SWIDTH 606 0
DWIDTH 10 0
BBX 8 2 1 4
BITMAP
FF
FF
ENDCHAR

STARTCHAR period
ENCODING 46
SWIDTH 250 0
DWIDTH 4 0
BBX 2 2 1 0
BITMAP
C0
C0
ENDCHAR

STARTCHAR slash
ENCODING 47
SWIDTH 296 0
DWIDTH 5 0
BBX 10 18 -2 -5
BITMAP
00C0
00C0
0180
0180
0300
0300
0600
0600
0C00
0C00
1800
1800
3000
3000
6000
6000
C000
C000
ENDCHAR

STARTCHAR zero
ENCODING 48
SWIDTH 500 0
DWIDTH 9 0
BBX 8 12 1 0
BITMAP
3C
66
C3
C3
C3
C3
C3
C3
C3
C3
66
3C
ENDCHAR

STARTCHAR one
ENCODING 49
SWIDTH 500 0
DWIDTH 9 0
BBX 7 12 1 0
BITMAP
08
38
D8
18
18
18
18
18
18
18
18
7E
ENDCHAR

STARTCHAR two
ENCODING 50
SWIDTH 500 0
DWIDTH 9 0
BBX 8 12 1 0
BITMAP
78
8C
86
06
06
06
0C
18
30
60
FF
FF
ENDCHAR

STARTCHAR three
ENCODING 51
SWIDTH 500 0
DWIDTH 9 0
BBX 7 12 1 0
BITMAP
78
9C
8C
0C
18
7C
0E
06
06
86
8C
78
ENDCHAR

STARTCHAR four
ENCODING 52
SWIDTH 500 0
DWIDTH 9 0
BBX 8 12 1 0
BITMAP
0C
1C
1C
2C
2C
4C
4C
FF
FF
0C
0C
3F
ENDCHAR

STARTCHAR five
ENCODING 53
SWIDTH 500 0
DWIDTH 9 0
BBX 7 12 1 0
BITMAP
FE
FE
C0
C0
F8
FC
8E
06
06
86
8C
78
ENDCHAR

STARTCHAR six
ENCODING 54
SWIDTH 500 0
DWIDTH 9 0
BBX 7 12 1 0
BITMAP
0E
30
60
60
C0
DC
EE
C6
C6
C6
6C
38
ENDCHAR

STARTCHAR seven
ENCODING 55
SWIDTH 500 0
DWIDTH 9 0
BBX 8 12 1 0
BITMAP
FF
FE
86
8C
0C
18
18
30
30
60
60
60
ENDCHAR

STARTCHAR eight
ENCODING 56
SWIDTH 500 0
DWIDTH 9 0
BBX 8 12 1 0
BITMAP
3C
66
C3
C3
66
3C
66
C3
C3
C3
66
3C
ENDCHAR

STARTCHAR nine
ENCODING 57
SWIDTH 500 0
DWIDTH 9 0
BBX 7 12 1 0
BITMAP
38
6C
C6
C6
C6
EE
76
06
0C
0C
18
E0
ENDCHAR

STARTCHAR colon
ENCODING 58
SWIDTH 250 0
DWIDTH 4 0
BBX 2 7 1 0
BITMAP
C0
C0
00
00
00
C0
C0
ENDCHAR

STARTCHAR semicolon
ENCODING 59
SWIDTH 250 0
DWIDTH 4 0
BBX 3 9 0 -2
BITMAP
60
60
00
00
00
60
60
40
80
ENDCHAR

STARTCHAR less
ENCODING 60
SWIDTH 606 0
DWIDTH 10 0
BBX 8 8 1 1
BITMAP
03
0F
3C
F0
F0
3C
0F
03
ENDCHAR

STARTCHAR equal
ENCODING 61
SWIDTH 606 0
DWIDTH 10 0
BBX 8 6 1 2
BITMAP
FF
FF
00
00
FF
FF
ENDCHAR

STARTCHAR greater
ENCODING 62
SWIDTH 606 0
DWIDTH 10 0
BBX 8 8 1 1
BITMAP
C0
F0
3C
0F
0F
3C
F0
C0
ENDCHAR

STARTCHAR question
ENCODING 63
SWIDTH 444 0
DWIDTH 8 0
BBX 6 13 1 0
BITMAP
38
4C
CC
0C
0C
18
30
20
20
00
00
30
30
ENDCHAR

STARTCHAR at
ENCODING 64
SWIDTH 747 0
DWIDTH 13 0
BBX 12 13 1 -1
BITMAP
0F00
30C0
4020
46A0
8D90
9990
9910
9920
9B60
4D90
4020
30C0
0F00
ENDCHAR

STARTCHAR A
ENCODING 65
SWIDTH 778 0
DWIDTH 13 0
BBX 12 12 1 0
BITMAP
0400
0600
0600
0F00
0B00
1180
1180
3FC0
20C0
4060
4060
E0F0
ENDCHAR

STARTCHAR B
ENCODING 66
SWIDTH 667 0
DWIDTH 11 0
BBX 10 12 1 0
BITMAP
FF80
31C0
30C0
30C0
3180
3F00
3180
30C0
30C0
30C0
31C0
FF80
ENDCHAR

STARTCHAR C
ENCODING 67
SWIDTH 722 0
DWIDTH 12 0
BBX 11 12 1 0
BITMAP
0FE0
3820
6020
6000
C000
C000
C000
C000
6000
6000
3820
0FC0
ENDCHAR

STARTCHAR D
ENCODING 68
SWIDTH 833 0
DWIDTH 14 0
BBX 13 12 1 0
BITMAP
FFC0
3060
3030
3030
3018
3018
3018
3018
3030
3030
3060
FFC0
ENDCHAR

STARTCHAR E
ENCODING 69
SWIDTH 611 0
DWIDTH 10 0
BBX 10 12 0 0
BITMAP
FFC0
3040
3040
3000
3100
3F00
3100
3000
3000
3040
3040
FFC0
ENDCHAR

STARTCHAR F
ENCODING 70
SWIDTH 556 0
DWIDTH 9 0
BBX 9 12 0 0
BITMAP
FF80
3080
3080
3000
3100
3F00
3100
3000
3000
3000
3000
FC00
ENDCHAR

STARTCHAR G
ENCODING 71
SWIDTH 833 0
DWIDTH 14 0
BBX 13 12 1 0
BITMAP
0FF0
3810
6010
6000
C000
C000
C000
C0F8
6030
6030
3830
0FC0
ENDCHAR

STARTCHAR H
ENCODING 72
SWIDTH 833 0
DWIDTH 14 0
BBX 13 12 1 0
BITMAP
FDF8
3060
3060
3060
3060
3FE0
3060
3060
3060
3060
3060
FDF8
ENDCHAR

STARTCHAR I
ENCODING 73
SWIDTH 389 0
DWIDTH 7 0
BBX 6 12 1 0
BITMAP
FC
30
30
30
30
30
30
30
30
30
30
FC
ENDCHAR

STARTCHAR J
ENCODING 74
SWIDTH 389 0
DWIDTH 7 0
BBX 6 15 1 -3
BITMAP
FC
30
30
30
30
30
30
30
30
30
30
30
30
60
C0
ENDCHAR

STARTCHAR K
ENCODING 75
SWIDTH 778 0
DWIDTH 13 0
BBX 13 12 1 0
BITMAP
FCF0
3040
3080
3100
3200
3400
3E00
3300
3180
30C0
3060
FC78
ENDCHAR

STARTCHAR L
ENCODING 76
SWIDTH 611 0
DWIDTH 10 0
BBX 10 12 0 0
BITMAP
FC00
3000
3000
3000
3000
3000
3000
3000
3000
3040
3040
FFC0
ENDCHAR

STARTCHAR M
ENCODING 77
SWIDTH 1000 0
DWIDTH 17 0
BBX 17 12 0 0
BITMAP
F80F80
380E00
380E00
2C1600
2C1600
262600
262600
234600
23C600
21C600
218600
F89F80
ENDCHAR

STARTCHAR N
ENCODING 78
SWIDTH 833 0
DWIDTH 14 0
BBX 14 12 0 0
BITMAP
F07C
3810
3C10
2E10
2710
2310
2390
21D0
20F0
2070
2030
F810
ENDCHAR

STARTCHAR O
ENCODING 79
SWIDTH 833 0
DWIDTH 14 0
BBX 13 12 1 0
BITMAP
0F80
38E0
6030
6030
C018
C018
C018
C018
6030
6030
38E0
0F80
ENDCHAR

STARTCHAR P
ENCODING 80
SWIDTH 611 0
DWIDTH 10 0
BBX 10 12 0 0
BITMAP
FF80
31C0
30C0
30C0
31C0
3780
3000
3000
3000
3000
3000
FC00
ENDCHAR

STARTCHAR Q
ENCODING 81
SWIDTH 833 0
DWIDTH 14 0
BBX 13 15 1 -3
BITMAP
0F80
38E0
6030
6030
C018
C018
C018
C018
6030
6030
38E0
0F80
0708
0DF8
0070
ENDCHAR

STARTCHAR R
ENCODING 82
SWIDTH 722 0
DWIDTH 12 0
BBX 12 12 0 0
BITMAP
FF00
3180
30C0
30C0
3180
3700
3300
3180
3180
30C0
3060
FC70
ENDCHAR

STARTCHAR S
ENCODING 83
SWIDTH 611 0
DWIDTH 10 0
BBX 8 12 1 0
BITMAP
3F
61
C1
C0
E0
7C
3E
07
03
83
86
FC
ENDCHAR

STARTCHAR T
ENCODING 84
SWIDTH 667 0
DWIDTH 11 0
BBX 10 12 1 0
BITMAP
FFC0
8C40
8C40
0C00
0C00
0C00
0C00
0C00
0C00
0C00
0C00
3F00
ENDCHAR

STARTCHAR U
ENCODING 85
SWIDTH 778 0
DWIDTH 13 0
BBX 13 12 0 0
BITMAP
FCF8
3020
3020
3020
3020
3020
3020
3020
3020
3020
1840
0F80
ENDCHAR

STARTCHAR V
ENCODING 86
SWIDTH 778 0
DWIDTH 13 0
BBX 14 12 0 0
BITMAP
FC7C
3010
1810
1820
0C20
0C40
0640
0680
0380
0380
0100
0100
ENDCHAR

STARTCHAR W
ENCODING 87
SWIDTH 1000 0
DWIDTH 17 0
BBX 19 12 -1 0
BITMAP
FC43E0
306080
30E080
30E100
193100
193100
1A1A00
0A1A00
0E0E00
0C0E00
040400
040400
ENDCHAR

STARTCHAR X
ENCODING 88
SWIDTH 667 0
DWIDTH 11 0
BBX 11 12 0 0
BITMAP
3060
F040
3080
1900
0F00
0E00
0600
0B00
1300
1180
20C0
E0E0
ENDCHAR

STARTCHAR Y
ENCODING 89
SWIDTH 667 0
DWIDTH 11 0
BBX 11 12 0 0
BITMAP
E060
6040
3080
1880
1900
0D00
0E00
0600
0600
0600
0600
1F80
ENDCHAR

STARTCHAR Z
ENCODING 90
SWIDTH 667 0
DWIDTH 11 0
BBX 11 12 0 0
BITMAP
7FE0
40C0
4180
0300
0300
0600
0C00
1800
3000
3020
6020
FFE0
ENDCHAR

STARTCHAR bracketleft
ENCODING 91
SWIDTH 333 0
DWIDTH 6 0
BBX 4 18 1 -5
BITMAP
F0
C0
C0
C0
C0
C0
C0
C0
C0
C0
C0
C0
C0
C0
C0
C0
C0
F0
ENDCHAR

STARTCHAR backslash
ENCODING 92
SWIDTH 606 0
DWIDTH 10 0
BBX 10 18 0 -5
BITMAP
C000
C000
6000
6000
3000
3000
1800
1800
0C00
0C00
0600
0600
0300
0300
0180
0180
00C0
00C0
ENDCHAR

STARTCHAR bracketright
ENCODING 93
SWIDTH 333 0
DWIDTH 6 0
BBX 4 18 1 -5
BITMAP
F0
30
30
30
30
30
30
30
30
30
30
30
30
30
30
30
30
F0
ENDCHAR

STARTCHAR asciicircum
ENCODING 94
SWIDTH 606 0
DWIDTH 10 0
BBX 8 7 1 5
BITMAP
18
18
3C
3C
66
66
C3
ENDCHAR

STARTCHAR underscore
ENCODING 95
SWIDTH 500 0
DWIDTH 9 0
BBX 9 2 0 -2
BITMAP
FF80
FF80
ENDCHAR

STARTCHAR quoteleft
ENCODING 96
SWIDTH 278 0
DWIDTH 6 0
BBX 3 4 2 9
BITMAP
20
40
C0
C0
ENDCHAR

STARTCHAR a
ENCODING 97
SWIDTH 500 0
DWIDTH 9 0
BBX 8 8 1 0
BITMAP
3C
46
06
3E
66
C6
CE
73
ENDCHAR

STARTCHAR b
ENCODING 98
SWIDTH 611 0
DWIDTH 10 0
BBX 9 13 1 0
BITMAP
2000
E000
6000
6000
6000
6E00
7300
6180
6180
6180
6180
7300
4E00
ENDCHAR

STARTCHAR c
ENCODING 99
SWIDTH 444 0
DWIDTH 8 0
BBX 7 8 1 0
BITMAP
3E
62
C2
C0
C0
C0
62
3C
ENDCHAR

STARTCHAR d
ENCODING 100
SWIDTH 611 0
DWIDTH 10 0
BBX 9 13 1 0
BITMAP
0100
0700
0300
0300
0300
3B00
6700
C300
C300
C300
C300
6700
3B80
ENDCHAR

STARTCHAR e
ENCODING 101
SWIDTH 500 0
DWIDTH 8 0
BBX 7 8 1 0
BITMAP
3C
66
C6
FE
C0
C0
62
3C
ENDCHAR

STARTCHAR f
ENCODING 102
SWIDTH 389 0
DWIDTH 6 0
BBX 6 13 1 0
BITMAP
1C
34
60
60
60
F8
60
60
60
60
60
60
F0
ENDCHAR

STARTCHAR g
ENCODING 103
SWIDTH 556 0
DWIDTH 9 0
BBX 8 12 1 -4
BITMAP
3B
46
C6
C6
C4
78
40
7C
FE
86
82
7C
ENDCHAR

STARTCHAR h
ENCODING 104
SWIDTH 611 0
DWIDTH 10 0
BBX 9 13 1 0
BITMAP
2000
E000
6000
6000
6000
6E00
7300
6300
6300
6300
6300
6300
F380
ENDCHAR

STARTCHAR i
ENCODING 105
SWIDTH 333 0
DWIDTH 5 0
BBX 4 11 1 0
BITMAP
60
60
00
20
E0
60
60
60
60
60
F0
ENDCHAR

STARTCHAR j
ENCODING 106
SWIDTH 333 0
DWIDTH 5 0
BBX 4 15 0 -4
BITMAP
30
30
00
10
70
30
30
30
30
30
30
30
30
20
C0
ENDCHAR

STARTCHAR k
ENCODING 107
SWIDTH 611 0
DWIDTH 10 0
BBX 9 13 1 0
BITMAP
2000
E000
6000
6000
6000
6380
6600
6C00
7800
7C00
6600
6300
F780
ENDCHAR

STARTCHAR l
ENCODING 108
SWIDTH 333 0
DWIDTH 5 0
BBX 4 13 1 0
BITMAP
20
E0
60
60
60
60
60
60
60
60
60
60
F0
ENDCHAR

STARTCHAR m
ENCODING 109
SWIDTH 889 0
DWIDTH 15 0
BBX 14 8 1 0
BITMAP
2E70
F398
6318
6318
6318
6318
6318
F79C
ENDCHAR

STARTCHAR n
ENCODING 110
SWIDTH 611 0
DWIDTH 10 0
BBX 9 8 1 0
BITMAP
2E00
F300
6300
6300
6300
6300
6300
F380
ENDCHAR

STARTCHAR o
ENCODING 111
SWIDTH 556 0
DWIDTH 9 0
BBX 8 8 1 0
BITMAP
3C
66
C3
C3
C3
C3
66
3C
ENDCHAR

STARTCHAR p
ENCODING 112
SWIDTH 611 0
DWIDTH 10 0
BBX 9 12 1 -4
BITMAP
2E00
F300
6180
6180
6180
6180
7100
6E00
6000
6000
6000
F000
ENDCHAR

STARTCHAR q
ENCODING 113
SWIDTH 611 0
DWIDTH 10 0
BBX 9 12 1 -4
BITMAP
3B00
6700
C300
C300
C300
C300
6700
3B00
0300
0300
0300
0780
ENDCHAR

STARTCHAR r
ENCODING 114
SWIDTH 389 0
DWIDTH 7 0
BBX 6 8 1 0
BITMAP
2C
FC
60
60
60
60
60
F0
ENDCHAR

STARTCHAR s
ENCODING 115
SWIDTH 444 0
DWIDTH 7 0
BBX 6 8 1 0
BITMAP
7C
C4
C0
F8
7C
0C
8C
F8
ENDCHAR

STARTCHAR t
ENCODING 116
SWIDTH 333 0
DWIDTH 6 0
BBX 5 11 1 0
BITMAP
20
60
60
F8
60
60
60
60
60
68
30
ENDCHAR

STARTCHAR u
ENCODING 117
SWIDTH 611 0
DWIDTH 10 0
BBX 9 8 1 0
BITMAP
2100
E700
6300
6300
6300
6300
6700
3B80
ENDCHAR

STARTCHAR v
ENCODING 118
SWIDTH 556 0
DWIDTH 10 0
BBX 9 8 1 0
BITMAP
F380
6100
3100
3200
1A00
1C00
0C00
0C00
ENDCHAR

STARTCHAR w
ENCODING 119
SWIDTH 833 0
DWIDTH 14 0
BBX 13 8 1 0
BITMAP
F338
6310
6310
35A0
35A0
18E0
18C0
18C0
ENDCHAR

STARTCHAR x
ENCODING 120
SWIDTH 500 0
DWIDTH 10 0
BBX 9 8 1 0
BITMAP
2180
F280
3400
1800
1C00
2E00
4700
C380
ENDCHAR

STARTCHAR y
ENCODING 121
SWIDTH 556 0
DWIDTH 9 0
BBX 9 12 1 -4
BITMAP
F380
6100
3100
3200
1A00
1C00
0C00
0800
0800
1000
5000
E000
ENDCHAR

STARTCHAR z
ENCODING 122
SWIDTH 500 0
DWIDTH 9 0
BBX 8 8 1 0
BITMAP
FF
86
8C
18
18
31
61
FF
ENDCHAR

STARTCHAR braceleft
ENCODING 123
SWIDTH 310 0
DWIDTH 5 0
BBX 6 18 0 -5
BITMAP
1C
30
30
30
30
30
30
60
C0
60
30
30
30
30
30
30
30
1C
ENDCHAR

STARTCHAR bar
ENCODING 124
SWIDTH 606 0
DWIDTH 10 0
BBX 2 18 4 -5
BITMAP
C0
C0
C0
C0
C0
C0
C0
C0
C0
C0
C0
C0
C0
C0
C0
C0
C0
C0
ENDCHAR

STARTCHAR braceright
ENCODING 125
SWIDTH 310 0
DWIDTH 5 0
BBX 5 18 0 -5
BITMAP
C0
60
60
60
60
60
60
60
30
18
30
60
60
60
60
60
60
C0
ENDCHAR

STARTCHAR asciitilde
ENCODING 126
SWIDTH 606 0
DWIDTH 10 0
BBX 9 4 1 3
BITMAP
7080
F880
9F80
8700
ENDCHAR

STARTCHAR space
ENCODING 160
SWIDTH 250 0
DWIDTH 6 0
BBX 0 0 0 0
BITMAP
ENDCHAR

STARTCHAR Aogonek
ENCODING 161
SWIDTH 778 0
DWIDTH 13 0
BBX 12 14 1 -2
BITMAP
0400
0600
0600
0F00
0B00
1180
1180
3FC0
20C0
4060
4060
E0F0
00C0
0070
ENDCHAR

STARTCHAR afii240
ENCODING 162
SWIDTH 556 0
DWIDTH 9 0
BBX 9 8 1 0
BITMAP
F700
6200
6400
7800
6C00
6600
6300
F780
ENDCHAR

STARTCHAR Rcommaaccent
ENCODING 163
SWIDTH 722 0
DWIDTH 12 0
BBX 12 17 0 -5
BITMAP
FF00
3180
30C0
30C0
3180
3700
3300
3180
3180
30C0
3060
FC70
0000
0600
0600
0400
0800
ENDCHAR

STARTCHAR currency
ENCODING 164
SWIDTH 606 0
DWIDTH 10 0
BBX 9 9 1 2
BITMAP
5D00
FF80
6300
C180
C180
C180
6300
FF80
5D00
ENDCHAR

STARTCHAR Itilde
ENCODING 165
SWIDTH 389 0
DWIDTH 7 0
BBX 6 15 1 0
BITMAP
34
58
00
FC
30
30
30
30
30
30
30
30
30
30
FC
ENDCHAR

STARTCHAR Lcommaaccent
ENCODING 166
SWIDTH 611 0
DWIDTH 10 0
BBX 10 17 0 -5
BITMAP
FC00
3000
3000
3000
3000
3000
3000
3000
3000
3040
3040
FFC0
0000
0C00
0C00
0800
1000
ENDCHAR

STARTCHAR section
ENCODING 167
SWIDTH 500 0
DWIDTH 9 0
BBX 8 18 1 -5
BITMAP
3E
62
C2
C0
C0
78
7E
C7
C3
C3
F3
7E
0E
03
03
43
46
7C
ENDCHAR

STARTCHAR hungarumlaut
ENCODING 168
SWIDTH 333 0
DWIDTH 6 0
BBX 7 2 0 9
BITMAP
66
CC
ENDCHAR

STARTCHAR Scaron
ENCODING 169
SWIDTH 611 0
DWIDTH 10 0
BBX 8 15 1 0
BITMAP
36
1C
00
3F
61
C1
C0
E0
7C
3E
07
03
83
86
FC
ENDCHAR

STARTCHAR Emacron
ENCODING 170
SWIDTH 611 0
DWIDTH 10 0
BBX 10 14 0 0
BITMAP
3F00
0000
FFC0
3040
3040
3000
3100
3F00
3100
3000
3000
3040
3040
FFC0
ENDCHAR

STARTCHAR Gcommaaccent
ENCODING 171
SWIDTH 833 0
DWIDTH 14 0
BBX 13 17 1 -5
BITMAP
0FF0
3810
6010
6000
C000
C000
C000
C0F8
6030
6030
3830
0FC0
0000
0300
0300
0200
0400
ENDCHAR

STARTCHAR afii237
ENCODING 172
SWIDTH 667 0
DWIDTH 11 0
BBX 10 12 1 0
BITMAP
FFC0
8C40
8C40
0C00
0C00
0C00
7F80
0C00
0C00
0C00
0C00
3F00
ENDCHAR

STARTCHAR hyphen
ENCODING 173
SWIDTH 333 0
DWIDTH 6 0
BBX 6 2 0 3
BITMAP
FC
FC
ENDCHAR

STARTCHAR Zcaron
ENCODING 174
SWIDTH 667 0
DWIDTH 11 0
BBX 11 15 0 0
BITMAP
0D80
0700
0000
7FE0
40C0
4180
0300
0300
0600
0C00
1800
3000
3020
6020
FFE0
ENDCHAR

STARTCHAR macron
ENCODING 175
SWIDTH 333 0
DWIDTH 6 0
BBX 6 1 0 9
BITMAP
FC
ENDCHAR

STARTCHAR degree
ENCODING 176
SWIDTH 396 0
DWIDTH 7 0
BBX 5 5 1 7
BITMAP
70
D8
D8
D8
70
ENDCHAR

STARTCHAR aogonek
ENCODING 177
SWIDTH 500 0
DWIDTH 9 0
BBX 10 10 1 -2
BITMAP
3C00
4600
0600
3E00
6600
C600
CE00
7300
0300
01C0
ENDCHAR

STARTCHAR ogonek
ENCODING 178
SWIDTH 333 0
DWIDTH 6 0
BBX 4 2 1 -2
BITMAP
C0
70
ENDCHAR

STARTCHAR rcommaaccent
ENCODING 179
SWIDTH 389 0
DWIDTH 7 0
BBX 6 13 1 -5
BITMAP
2C
FC
60
60
60
60
60
F0
00
60
60
40
80
ENDCHAR

STARTCHAR acute
ENCODING 180
SWIDTH 333 0
DWIDTH 6 0
BBX 3 2 1 9
BITMAP
60
C0
ENDCHAR

STARTCHAR itilde
ENCODING 181
SWIDTH 333 0
DWIDTH 5 0
BBX 5 11 1 0
BITMAP
68
B0
00
20
E0
60
60
60
60
60
F0
ENDCHAR

STARTCHAR lcommaaccent
ENCODING 182
SWIDTH 333 0
DWIDTH 5 0
BBX 4 18 1 -5
BITMAP
20
E0
60
60
60
60
60
60
60
60
60
60
F0
00
60
60
40
80
ENDCHAR

STARTCHAR caron
ENCODING 183
SWIDTH 333 0
DWIDTH 6 0
BBX 5 2 1 9
BITMAP
D8
70
ENDCHAR

STARTCHAR commaaccent
ENCODING 184
SWIDTH 333 0
DWIDTH 6 0
BBX 3 4 1 -5
BITMAP
60
60
40
80
ENDCHAR

STARTCHAR scaron
ENCODING 185
SWIDTH 444 0
DWIDTH 7 0
BBX 6 11 1 0
BITMAP
6C
38
00
7C
C4
C0
F8
7C
0C
8C
F8
ENDCHAR

STARTCHAR emacron
ENCODING 186
SWIDTH 500 0
DWIDTH 8 0
BBX 7 10 1 0
BITMAP
7E
00
3C
66
C6
FE
C0
C0
62
3C
ENDCHAR

STARTCHAR gcommaaccent
ENCODING 187
SWIDTH 556 0
DWIDTH 9 0
BBX 8 16 1 -4
BITMAP
04
08
18
00
3B
46
C6
C6
C4
78
40
7C
FE
86
82
7C
ENDCHAR

STARTCHAR afii253
ENCODING 188
SWIDTH 333 0
DWIDTH 6 0
BBX 5 11 1 0
BITMAP
20
60
60
F8
60
60
F8
60
60
68
30
ENDCHAR

STARTCHAR afii238
ENCODING 189
SWIDTH 757 0
DWIDTH 13 0
BBX 12 12 1 0
BITMAP
F780
38C0
3060
3060
3030
3030
3030
3030
3030
3230
3320
F9C0
ENDCHAR

STARTCHAR zcaron
ENCODING 190
SWIDTH 500 0
DWIDTH 9 0
BBX 8 11 1 0
BITMAP
36
1C
00
FF
86
8C
18
18
31
61
FF
ENDCHAR

STARTCHAR afii254
ENCODING 191
SWIDTH 556 0
DWIDTH 9 0
BBX 8 12 1 -4
BITMAP
EE
73
63
63
63
63
63
F3
03
1B
1B
0E
ENDCHAR

STARTCHAR Amacron
ENCODING 192
SWIDTH 778 0
DWIDTH 13 0
BBX 12 14 1 0
BITMAP
1F80
0000
0400
0600
0600
0F00
0B00
1180
1180
3FC0
20C0
4060
4060
E0F0
ENDCHAR

STARTCHAR Aacute
ENCODING 193
SWIDTH 778 0
DWIDTH 13 0
BBX 12 15 1 0
BITMAP
0300
0600
0000
0400
0600
0600
0F00
0B00
1180
1180
3FC0
20C0
4060
4060
E0F0
ENDCHAR

STARTCHAR Acircumflex
ENCODING 194
SWIDTH 778 0
DWIDTH 13 0
BBX 12 15 1 0
BITMAP
0E00
1B00
0000
0400
0600
0600
0F00
0B00
1180
1180
3FC0
20C0
4060
4060
E0F0
ENDCHAR

STARTCHAR Atilde
ENCODING 195
SWIDTH 778 0
DWIDTH 13 0
BBX 12 15 1 0
BITMAP
0D00
1600
0000
0400
0600
0600
0F00
0B00
1180
1180
3FC0
20C0
4060
4060
E0F0
ENDCHAR

STARTCHAR Adieresis
ENCODING 196
SWIDTH 778 0
DWIDTH 13 0
BBX 12 15 1 0
BITMAP
1980
1980
0000
0400
0600
0600
0F00
0B00
1180
1180
3FC0
20C0
4060
4060
E0F0
ENDCHAR

STARTCHAR Aring
ENCODING 197
SWIDTH 778 0
DWIDTH 13 0
BBX 12 16 1 0
BITMAP
0600
0900
0600
0000
0400
0600
0600
0F00
0B00
1180
1180
3FC0
20C0
4060
4060
E0F0
ENDCHAR

STARTCHAR AE
ENCODING 198
SWIDTH 1000 0
DWIDTH 17 0
BBX 15 12 1 0
BITMAP
07FE
02C2
02C2
04C0
08C4
08FC
10C4
1FC0
20C0
40C2
40C2
E1FE
ENDCHAR

STARTCHAR Iogonek
ENCODING 199
SWIDTH 389 0
DWIDTH 7 0
BBX 6 14 1 -2
BITMAP
FC
30
30
30
30
30
30
30
30
30
30
FC
30
1C
ENDCHAR

STARTCHAR Ccaron
ENCODING 200
SWIDTH 722 0
DWIDTH 12 0
BBX 11 15 1 0
BITMAP
06C0
0380
0000
0FE0
3820
6020
6000
C000
C000
C000
C000
6000
6000
3820
0FC0
ENDCHAR

STARTCHAR Eacute
ENCODING 201
SWIDTH 611 0
DWIDTH 10 0
BBX 10 15 0 0
BITMAP
0600
0C00
0000
FFC0
3040
3040
3000
3100
3F00
3100
3000
3000
3040
3040
FFC0
ENDCHAR

STARTCHAR Eogonek
ENCODING 202
SWIDTH 611 0
DWIDTH 10 0
BBX 11 14 0 -2
BITMAP
FFC0
3040
3040
3000
3100
3F00
3100
3000
3000
3040
3040
FFC0
0180
00E0
ENDCHAR

STARTCHAR Edieresis
ENCODING 203
SWIDTH 611 0
DWIDTH 10 0
BBX 10 15 0 0
BITMAP
3300
3300
0000
FFC0
3040
3040
3000
3100
3F00
3100
3000
3000
3040
3040
FFC0
ENDCHAR

STARTCHAR Edotaccent
ENCODING 204
SWIDTH 611 0
DWIDTH 10 0
BBX 10 15 0 0
BITMAP
0C00
0C00
0000
FFC0
3040
3040
3000
3100
3F00
3100
3000
3000
3040
3040
FFC0
ENDCHAR

STARTCHAR Iacute
ENCODING 205
SWIDTH 389 0
DWIDTH 7 0
BBX 6 15 1 0
BITMAP
18
30
00
FC
30
30
30
30
30
30
30
30
30
30
FC
ENDCHAR

STARTCHAR Icircumflex
ENCODING 206
SWIDTH 389 0
DWIDTH 7 0
BBX 6 15 1 0
BITMAP
38
6C
00
FC
30
30
30
30
30
30
30
30
30
30
FC
ENDCHAR

STARTCHAR Imacron
ENCODING 207
SWIDTH 389 0
DWIDTH 7 0
BBX 6 14 1 0
BITMAP
FC
00
FC
30
30
30
30
30
30
30
30
30
30
FC
ENDCHAR

STARTCHAR Eth
ENCODING 208
SWIDTH 833 0
DWIDTH 14 0
BBX 13 12 1 0
BITMAP
FFC0
3060
3030
3030
3018
FE18
3018
3018
3030
3030
3060
FFC0
ENDCHAR

STARTCHAR Ncommaaccent
ENCODING 209
SWIDTH 833 0
DWIDTH 14 0
BBX 14 17 0 -5
BITMAP
F07C
3810
3C10
2E10
2710
2310
2390
21D0
20F0
2070
2030
F810
0000
0300
0300
0200
0400
ENDCHAR

STARTCHAR Omacron
ENCODING 210
SWIDTH 833 0
DWIDTH 14 0
BBX 13 14 1 0
BITMAP
0FC0
0000
0F80
38E0
6030
6030
C018
C018
C018
C018
6030
6030
38E0
0F80
ENDCHAR

STARTCHAR Kcommaaccent
ENCODING 211
SWIDTH 778 0
DWIDTH 13 0
BBX 13 17 1 -5
BITMAP
FCF0
3040
3080
3100
3200
3400
3E00
3300
3180
30C0
3060
FC78
0000
0600
0600
0400
0800
ENDCHAR

STARTCHAR Ocircumflex
ENCODING 212
SWIDTH 833 0
DWIDTH 14 0
BBX 13 15 1 0
BITMAP
0700
0D80
0000
0F80
38E0
6030
6030
C018
C018
C018
C018
6030
6030
38E0
0F80
ENDCHAR

STARTCHAR Otilde
ENCODING 213
SWIDTH 833 0
DWIDTH 14 0
BBX 13 15 1 0
BITMAP
0680
0B00
0000
0F80
38E0
6030
6030
C018
C018
C018
C018
6030
6030
38E0
0F80
ENDCHAR

STARTCHAR Odieresis
ENCODING 214
SWIDTH 833 0
DWIDTH 14 0
BBX 13 15 1 0
BITMAP
0CC0
0CC0
0000
0F80
38E0
6030
6030
C018
C018
C018
C018
6030
6030
38E0
0F80
ENDCHAR

STARTCHAR multiply
ENCODING 215
SWIDTH 606 0
DWIDTH 10 0
BBX 7 6 2 3
BITMAP
C6
6C
38
38
6C
C6
ENDCHAR

STARTCHAR Oslash
ENCODING 216
SWIDTH 833 0
DWIDTH 14 0
BBX 13 12 1 0
BITMAP
0F90
38E0
6070
60B0
C118
C218
C218
C418
6830
7030
38E0
4F80
ENDCHAR

STARTCHAR Uogonek
ENCODING 217
SWIDTH 778 0
DWIDTH 13 0
BBX 13 14 0 -2
BITMAP
FCF8
3020
3020
3020
3020
3020
3020
3020
3020
3020
1840
0F80
0300
01C0
ENDCHAR

STARTCHAR Uacute
ENCODING 218
SWIDTH 778 0
DWIDTH 13 0
BBX 13 15 0 0
BITMAP
0180
0300
0000
FCF8
3020
3020
3020
3020
3020
3020
3020
3020
3020
1840
0F80
ENDCHAR

STARTCHAR Ucircumflex
ENCODING 219
SWIDTH 778 0
DWIDTH 13 0
BBX 13 15 0 0
BITMAP
0380
06C0
0000
FCF8
3020
3020
3020
3020
3020
3020
3020
3020
3020
1840
0F80
ENDCHAR

STARTCHAR Udieresis
ENCODING 220
SWIDTH 778 0
DWIDTH 13 0
BBX 13 15 0 0
BITMAP
0CC0
0CC0
0000
FCF8
3020
3020
3020
3020
3020
3020
3020
3020
3020
1840
0F80
ENDCHAR

STARTCHAR Utilde
ENCODING 221
SWIDTH 778 0
DWIDTH 13 0
BBX 13 15 0 0
BITMAP
0340
0580
0000
FCF8
3020
3020
3020
3020
3020
3020
3020
3020
3020
1840
0F80
ENDCHAR

STARTCHAR Umacron
ENCODING 222
SWIDTH 778 0
DWIDTH 13 0
BBX 13 14 0 0
BITMAP
0FC0
0000
FCF8
3020
3020
3020
3020
3020
3020
3020
3020
3020
1840
0F80
ENDCHAR

STARTCHAR germandbls
ENCODING 223
SWIDTH 611 0
DWIDTH 10 0
BBX 9 13 1 0
BITMAP
1C00
3200
6300
6300
6200
6400
EC00
6E00
6700
6380
6180
6900
EE00
ENDCHAR

STARTCHAR amacron
ENCODING 224
SWIDTH 500 0
DWIDTH 9 0
BBX 8 10 1 0
BITMAP
7E
00
3C
46
06
3E
66
C6
CE
73
ENDCHAR

STARTCHAR aacute
ENCODING 225
SWIDTH 500 0
DWIDTH 9 0
BBX 8 11 1 0
BITMAP
0C
18
00
3C
46
06
3E
66
C6
CE
73
ENDCHAR

STARTCHAR acircumflex
ENCODING 226
SWIDTH 500 0
DWIDTH 9 0
BBX 8 11 1 0
BITMAP
1C
36
00
3C
46
06
3E
66
C6
CE
73
ENDCHAR

STARTCHAR atilde
ENCODING 227
SWIDTH 500 0
DWIDTH 9 0
BBX 8 11 1 0
BITMAP
1A
2C
00
3C
46
06
3E
66
C6
CE
73
ENDCHAR

STARTCHAR adieresis
ENCODING 228
SWIDTH 500 0
DWIDTH 9 0
BBX 8 11 1 0
BITMAP
66
66
00
3C
46
06
3E
66
C6
CE
73
ENDCHAR

STARTCHAR aring
ENCODING 229
SWIDTH 500 0
DWIDTH 9 0
BBX 8 12 1 0
BITMAP
18
24
18
00
3C
46
06
3E
66
C6
CE
73
ENDCHAR

STARTCHAR ae
ENCODING 230
SWIDTH 778 0
DWIDTH 13 0
BBX 11 8 1 0
BITMAP
39C0
4660
0660
3FE0
6600
C600
CB20
71C0
ENDCHAR

STARTCHAR iogonek
ENCODING 231
SWIDTH 333 0
DWIDTH 5 0
BBX 5 13 1 -2
BITMAP
60
60
00
20
E0
60
60
60
60
60
F0
60
38
ENDCHAR

STARTCHAR ccaron
ENCODING 232
SWIDTH 444 0
DWIDTH 8 0
BBX 7 11 1 0
BITMAP
36
1C
00
3E
62
C2
C0
C0
C0
62
3C
ENDCHAR

STARTCHAR eacute
ENCODING 233
SWIDTH 500 0
DWIDTH 8 0
BBX 7 11 1 0
BITMAP
0C
18
00
3C
66
C6
FE
C0
C0
62
3C
ENDCHAR

STARTCHAR eogonek
ENCODING 234
SWIDTH 500 0
DWIDTH 8 0
BBX 7 10 1 -2
BITMAP
3C
66
C6
FE
C0
C0
62
3C
18
0E
ENDCHAR

STARTCHAR edieresis
ENCODING 235
SWIDTH 500 0
DWIDTH 8 0
BBX 7 11 1 0
BITMAP
66
66
00
3C
66
C6
FE
C0
C0
62
3C
ENDCHAR

STARTCHAR edotaccent
ENCODING 236
SWIDTH 500 0
DWIDTH 8 0
BBX 7 11 1 0
BITMAP
18
18
00
3C
66
C6
FE
C0
C0
62
3C
ENDCHAR

STARTCHAR iacute
ENCODING 237
SWIDTH 333 0
DWIDTH 5 0
BBX 4 11 1 0
BITMAP
30
60
00
20
E0
60
60
60
60
60
F0
ENDCHAR

STARTCHAR icircumflex
ENCODING 238
SWIDTH 333 0
DWIDTH 5 0
BBX 5 11 1 0
BITMAP
70
D8
00
20
E0
60
60
60
60
60
F0
ENDCHAR

STARTCHAR imacron
ENCODING 239
SWIDTH 333 0
DWIDTH 5 0
BBX 6 10 0 0
BITMAP
FC
00
10
70
30
30
30
30
30
78
ENDCHAR

STARTCHAR dcroat
ENCODING 240
SWIDTH 611 0
DWIDTH 10 0
BBX 9 13 1 0
BITMAP
0100
0700
0300
0F80
0300
3B00
6700
C300
C300
C300
C300
6700
3B80
ENDCHAR

STARTCHAR ncommaaccent
ENCODING 241
SWIDTH 611 0
DWIDTH 10 0
BBX 9 13 1 -5
BITMAP
2E00
F300
6300
6300
6300
6300
6300
F380
0000
1800
1800
1000
2000
ENDCHAR

STARTCHAR omacron
ENCODING 242
SWIDTH 556 0
DWIDTH 9 0
BBX 8 10 1 0
BITMAP
7E
00
3C
66
C3
C3
C3
C3
66
3C
ENDCHAR

STARTCHAR kcommaaccent
ENCODING 243
SWIDTH 611 0
DWIDTH 10 0
BBX 9 18 1 -5
BITMAP
2000
E000
6000
6000
6000
6380
6600
6C00
7800
7C00
6600
6300
F780
0000
1800
1800
1000
2000
ENDCHAR

STARTCHAR ocircumflex
ENCODING 244
SWIDTH 556 0
DWIDTH 9 0
BBX 8 11 1 0
BITMAP
1C
36
00
3C
66
C3
C3
C3
C3
66
3C
ENDCHAR

STARTCHAR otilde
ENCODING 245
SWIDTH 556 0
DWIDTH 9 0
BBX 8 11 1 0
BITMAP
1A
2C
00
3C
66
C3
C3
C3
C3
66
3C
ENDCHAR

STARTCHAR odieresis
ENCODING 246
SWIDTH 556 0
DWIDTH 9 0
BBX 8 11 1 0
BITMAP
66
66
00
3C
66
C3
C3
C3
C3
66
3C
ENDCHAR

STARTCHAR divide
ENCODING 247
SWIDTH 606 0
DWIDTH 10 0
BBX 8 8 1 1
BITMAP
18
18
00
FF
FF
00
18
18
ENDCHAR

STARTCHAR oslash
ENCODING 248
SWIDTH 556 0
DWIDTH 9 0
BBX 8 8 1 0
BITMAP
3D
66
CB
CB
D3
D3
66
BC
ENDCHAR

STARTCHAR uogonek
ENCODING 249
SWIDTH 611 0
DWIDTH 10 0
BBX 10 10 1 -2
BITMAP
2100
E700
6300
6300
6300
6300
6700
3B80
0300
01C0
ENDCHAR

STARTCHAR uacute
ENCODING 250
SWIDTH 611 0
DWIDTH 10 0
BBX 9 11 1 0
BITMAP
0C00
1800
0000
2100
E700
6300
6300
6300
6300
6700
3B80
ENDCHAR

STARTCHAR ucircumflex
ENCODING 251
SWIDTH 611 0
DWIDTH 10 0
BBX 9 11 1 0
BITMAP
1C00
3600
0000
2100
E700
6300
6300
6300
6300
6700
3B80
ENDCHAR

STARTCHAR udieresis
ENCODING 252
SWIDTH 611 0
DWIDTH 10 0
BBX 9 11 1 0
BITMAP
3300
3300
0000
2100
E700
6300
6300
6300
6300
6700
3B80
ENDCHAR

STARTCHAR utilde
ENCODING 253
SWIDTH 611 0
DWIDTH 10 0
BBX 9 11 1 0
BITMAP
1A00
2C00
0000
2100
E700
6300
6300
6300
6300
6700
3B80
ENDCHAR

STARTCHAR umacron
ENCODING 254
SWIDTH 611 0
DWIDTH 10 0
BBX 9 10 1 0
BITMAP
3F00
0000
2100
E700
6300
6300
6300
6300
6700
3B80
ENDCHAR

STARTCHAR dotaccent
ENCODING 255
SWIDTH 333 0
DWIDTH 6 0
BBX 2 2 2 9
BITMAP
C0
C0
ENDCHAR
ENDFONT
